<?xml version="1.0" encoding="utf-8"?>
<!-- Generator: Adobe Illustrator 24.0.0, SVG Export Plug-In . SVG Version: 6.00 Build 0)  -->
<svg version="1.1" id="Layer_1" xmlns="http://www.w3.org/2000/svg" xmlns:xlink="http://www.w3.org/1999/xlink" x="0px" y="0px"
	 viewBox="0 0 26 26" style="enable-background:new 0 0 26 26;" xml:space="preserve">
<style type="text/css">
	.st0{fill:#DCB36F;}
	.st1{opacity:0.7;fill:url(#SVGID_1_);}
	.st2{fill:url(#SVGID_2_);}
	.st3{opacity:0.8;fill:url(#SVGID_3_);}
	.st4{opacity:0.7;fill:url(#SVGID_4_);}
</style>
<g>
	<path class="st0" d="M0.4-0.1c0,0,4.7,3.9,6.8,11.1s-0.9,7.6-0.9,7.6l-1.4-2.3c0,0,0.8,1,1.2,0.8C6.7,16.9,7.6,7.8,0.4-0.1z"/>
	<path class="st0" d="M13.2,10.8c0,0-2.6-0.2-3.7,0.5s-1.2,2.3,3.4,4.9s15,7.8,12.8,9.8c0,0,1.3-0.7-1-3s-8.3-6.1-8.8-6.5
		c-0.5-0.3-5.8-3.8-5.3-4.1c0.5-0.3,1.8-0.2,2.4-0.1c0.6,0,1.9,0.1,2.2-0.5L13.2,10.8z"/>
	<linearGradient id="SVGID_1_" gradientUnits="userSpaceOnUse" x1="10.9265" y1="12.5102" x2="13.6733" y2="10.7733">
		<stop  offset="1.481641e-03" style="stop-color:#DCB36F"/>
		<stop  offset="1" style="stop-color:#000000"/>
	</linearGradient>
	<path class="st1" d="M12.9,12.3c0.6,0,1.9,0.1,2.2-0.5l-1.9-1c0,0-2.6-0.2-3.7,0.5c0,0-0.1,0-0.1,0.1l1.3,1
		C11.3,12.2,12.3,12.3,12.9,12.3z"/>
	<linearGradient id="SVGID_2_" gradientUnits="userSpaceOnUse" x1="4.7201" y1="5.6823" x2="6.4951" y2="10.4392">
		<stop  offset="0" style="stop-color:#DCB36F"/>
		<stop  offset="0.4921" style="stop-color:#000000"/>
		<stop  offset="1" style="stop-color:#DCB36F"/>
	</linearGradient>
	<path class="st2" d="M4.9,5.6L4.3,5.7C5.1,7.4,5.6,9,6,10.5l1-0.1C6.4,8.6,5.7,7,4.9,5.6z"/>
	<linearGradient id="SVGID_3_" gradientUnits="userSpaceOnUse" x1="7.5563" y1="13.5687" x2="5.9025" y2="17.5258">
		<stop  offset="0" style="stop-color:#DCB36F"/>
		<stop  offset="9.973866e-02" style="stop-color:#D6AE6C"/>
		<stop  offset="0.2387" style="stop-color:#C39F63"/>
		<stop  offset="0.4008" style="stop-color:#A68754"/>
		<stop  offset="0.5804" style="stop-color:#7C653F"/>
		<stop  offset="0.7744" style="stop-color:#473A24"/>
		<stop  offset="0.9776" style="stop-color:#080604"/>
		<stop  offset="1" style="stop-color:#000000"/>
	</linearGradient>
	<path class="st3" d="M6,17.1c-0.4,0.1-1.2-0.8-1.2-0.8l1.4,2.3c0,0,2.4-0.3,1.5-5.2l-1.3,0C6.6,15.6,6.3,17,6,17.1z"/>
	<path class="st0" d="M7.1,18.1c0,0-2.2-0.6-4.8-5.4C1,10.3,1.5,9.3,2.4,8.8L0,9.8c0,0-0.3,1.6,1.8,4.8S5.7,19.6,7.1,18.1z"/>
	<linearGradient id="SVGID_4_" gradientUnits="userSpaceOnUse" x1="2.4172" y1="13.1846" x2="1.0207" y2="9.3924">
		<stop  offset="1.481641e-03" style="stop-color:#DCB36F"/>
		<stop  offset="1" style="stop-color:#000000"/>
	</linearGradient>
	<path class="st4" d="M2.7,13.3c-0.1-0.2-0.2-0.4-0.4-0.6C1,10.3,1.5,9.3,2.4,8.8L0,9.8c0,0-0.2,1.3,1.2,4L2.7,13.3L2.7,13.3z"/>
	<path class="st0" d="M15,12c0,0-1.9-1.2-6-2.5S2.9,8.5,2,9.1c0,0-1.3,0.6-1.9,1.7c0,0-0.7-2.3,2-3.3S9.6,8,9.6,8S16.6,10,15,12z"/>
</g>
</svg>
